<?xml version="1.0" encoding="UTF-8"?>
<svg>
    <defs>
        <svg id="menu" width="24" height="24" viewBox="0 0 24 24">
            <path d="M0 0h24v24H0z" fill="none"/>
            <path d="M3 18h18v-2H3v2zm0-5h18v-2H3v2zm0-7v2h18V6H3z"/>
        </svg>

        <svg id="security" width="24" height="24" viewBox="0 0 24 24">
            <path d="M12 1L3 5v6c0 5.55 3.84 10.74 9 12 5.16-1.26 9-6.45 9-12V5l-9-4zm0 10.99h7c-.53 4.12-3.28 7.79-7 8.94V12H5V6.3l7-3.11v8.8z"/>
            <path d="M0 0h24v24H0z" fill="none"/>
        </svg>

        <svg id="add" width="24" height="24" viewBox="0 0 24 24">
            <path d="M19 13h-6v6h-2v-6H5v-2h6V5h2v6h6v2z"/>
            <path d="M0 0h24v24H0z" fill="none"/>
        </svg>

        <svg id="home" width="24" height="24" viewBox="0 0 24 24">
            <path d="M10 20v-6h4v6h5v-8h3L12 3 2 12h3v8z"/>
            <path d="M0 0h24v24H0z" fill="none"/>
        </svg>

        <svg id="flag" width="24" height="24" viewBox="0 0 24 24">
            <path d="M0 0h24v24H0z" fill="none"/>
            <path d="M14.4 6L14 4H5v17h2v-7h5.6l.4 2h7V6z"/>
        </svg>

        <svg id="edit" width="24" height="24" viewBox="0 0 24 24">
            <path d="M3 17.25V21h3.75L17.81 9.94l-3.75-3.75L3 17.25zM20.71 7.04c.39-.39.39-1.02 0-1.41l-2.34-2.34c-.39-.39-1.02-.39-1.41 0l-1.83 1.83 3.75 3.75 1.83-1.83z"/>
            <path d="M0 0h24v24H0z" fill="none"/>
        </svg>

        <svg id="user" width="24" height="24" viewBox="0 0 24 24">
            <path d="M12 12c2.21 0 4-1.79 4-4s-1.79-4-4-4-4 1.79-4 4 1.79 4 4 4zm0 2c-2.67 0-8 1.34-8 4v2h16v-2c0-2.66-5.33-4-8-4z"/>
            <path d="M0 0h24v24H0z" fill="none"/>
        </svg>

        <svg id="power-off" viewBox="0 0 512 512">
            <path fill="currentColor" d="M400 54.1c63 45 104 118.6 104 201.9 0 136.8-110.8 247.7-247.5 248C120 504.3 8.2 393 8 256.4 7.9 173.1 48.9 99.3 111.8 54.2c11.7-8.3 28-4.8 35 7.7L162.6 90c5.9 10.5 3.1 23.8-6.6 31-41.5 30.8-68 79.6-68 134.9-.1 92.3 74.5 168.1 168 168.1 91.6 0 168.6-74.2 168-169.1-.3-51.8-24.7-101.8-68.1-134-9.7-7.2-12.4-20.5-6.5-30.9l15.8-28.1c7-12.4 23.2-16.1 34.8-7.8zM296 264V24c0-13.3-10.7-24-24-24h-32c-13.3 0-24 10.7-24 24v240c0 13.3 10.7 24 24 24h32c13.3 0 24-10.7 24-24z"></path>
        </svg>

        <svg id="logout" viewBox="0 0 24 24">
            <path d="M0 0h24v24H0z" fill="none"/>
            <path d="M10.09 15.59L11.5 17l5-5-5-5-1.41 1.41L12.67 11H3v2h9.67l-2.58 2.59zM19 3H5c-1.11 0-2 .9-2 2v4h2V5h14v14H5v-4H3v4c0 1.1.89 2 2 2h14c1.1 0 2-.9 2-2V5c0-1.1-.9-2-2-2z"/>
        </svg>


        <svg id="star" viewBox="0 0 24 24">
            <path d="M0 0h24v24H0z" fill="none"/>
            <path d="M12 17.27L18.18 21l-1.64-7.03L22 9.24l-7.19-.61L12 2 9.19 8.63 2 9.24l5.46 4.73L5.82 21z"/>
            <path d="M0 0h24v24H0z" fill="none"/>
        </svg>

        <svg id="close" viewBox="0 0 24 24">
            <path d="M19 6.41L17.59 5 12 10.59 6.41 5 5 6.41 10.59 12 5 17.59 6.41 19 12 13.41 17.59 19 19 17.59 13.41 12z"/>
            <path d="M0 0h24v24H0z" fill="none"/>
        </svg>

      <svg id="delete" viewBox="0 0 24 24">
        <path d="M0 0h24v24H0V0z" fill="none" />
        <path
          d="M6 19c0 1.1.9 2 2 2h8c1.1 0 2-.9 2-2V7H6v12zm2.46-7.12l1.41-1.41L12 12.59l2.12-2.12 1.41 1.41L13.41 14l2.12 2.12-1.41 1.41L12 15.41l-2.12 2.12-1.41-1.41L10.59 14l-2.13-2.12zM15.5 4l-1-1h-5l-1 1H5v2h14V4z" />
        <path d="M0 0h24v24H0z" fill="none" />
      </svg>

      <svg id="edit" viewBox="0 0 24 24">
        <path d="M3 17.25V21h3.75L17.81 9.94l-3.75-3.75L3 17.25zM20.71 7.04c.39-.39.39-1.02 0-1.41l-2.34-2.34c-.39-.39-1.02-.39-1.41 0l-1.83 1.83 3.75 3.75 1.83-1.83z"/>
        <path d="M0 0h24v24H0z" fill="none"/>
      </svg>

    </defs>
</svg>
