<?xml version="1.0" encoding="UTF-8"?>
<svg>
  <defs>
    <svg id="user" viewBox="0 0 24 24">
      <path
        d="M12 12c2.21 0 4-1.79 4-4s-1.79-4-4-4-4 1.79-4 4 1.79 4 4 4zm0 2c-2.67 0-8 1.34-8 4v2h16v-2c0-2.66-5.33-4-8-4z"/>
      <path d="M0 0h24v24H0z" fill="none"/>
    </svg>
    <svg id="category" viewBox="0 0 24 24">
      <path
        d="M4,18V20H8V18H4M4,14V16H14V14H4M10,18V20H14V18H10M16,14V16H20V14H16M16,18V20H20V18H16M2,22V8L7,12V8L12,12V8L17,12L18,2H21L22,12V22H2Z"/>
    </svg>

    <svg id="comment" viewBox="0 0 24 24">
      <path
        d="M17.9,17.39C17.64,16.59 16.89,16 16,16H15V13A1,1 0 0,0 14,12H8V10H10A1,1 0 0,0 11,9V7H13A2,2 0 0,0 15,5V4.59C17.93,5.77 20,8.64 20,12C20,14.08 19.2,15.97 17.9,17.39M11,19.93C7.05,19.44 4,16.08 4,12C4,11.38 4.08,10.78 4.21,10.21L9,15V16A2,2 0 0,0 11,18M12,2A10,10 0 0,0 2,12A10,10 0 0,0 12,22A10,10 0 0,0 22,12A10,10 0 0,0 12,2Z"/>
    </svg>

    <svg id="customer" viewBox="0 0 24 24">
      <path
        d="M19 3H14.82C14.4 1.84 13.3 1 12 1S9.6 1.84 9.18 3H5C3.9 3 3 3.9 3 5V19C3 20.1 3.9 21 5 21H19C20.1 21 21 20.1 21 19V5C21 3.9 20.1 3 19 3M12 3C12.55 3 13 3.45 13 4S12.55 5 12 5 11 4.55 11 4 11.45 3 12 3M7 7H17V5H19V19H5V5H7V7M12 17V15H17V17H12M12 11V9H17V11H12M8 12V9H7V8H9V12H8M9.25 14C9.66 14 10 14.34 10 14.75C10 14.95 9.92 15.14 9.79 15.27L8.12 17H10V18H7V17.08L9 15H7V14H9.25"/>
    </svg>

    <svg id="job" viewBox="0 0 24 24">
      <path
        d="M22 8.5C22 9.87 20.88 11 19.5 11S17 9.87 17 8.5C17 9.87 15.88 11 14.5 11C13.12 11 12 9.87 12 8.5C12 9.87 10.88 11 9.5 11S7 9.87 7 8.5C7 9.87 5.88 11 4.5 11S2 9.87 2 8.5L3.39 3.08C3.39 3.08 3.68 2 4.7 2H19.3C20.32 2 20.61 3.08 20.61 3.08L22 8.5M21 12.2V20C21 21.1 20.1 22 19 22H5C3.9 22 3 21.1 3 20V12.2C3.46 12.39 3.97 12.5 4.5 12.5C5.45 12.5 6.32 12.17 7 11.62C7.69 12.17 8.56 12.5 9.5 12.5C10.45 12.5 11.32 12.17 12 11.62C12.69 12.17 13.56 12.5 14.5 12.5C15.45 12.5 16.32 12.17 17 11.62C17.68 12.17 18.56 12.5 19.5 12.5C20.03 12.5 20.54 12.39 21 12.2M19 17.33C19 17.13 19 16.92 18.95 16.7L18.92 16.54H15.95V17.71H17.76C17.7 17.93 17.62 18.15 17.45 18.33C17.12 18.66 16.67 18.84 16.19 18.84C15.69 18.84 15.2 18.63 14.84 18.28C14.15 17.57 14.15 16.42 14.86 15.7C15.55 15 16.69 15 17.41 15.67L17.55 15.8L18.39 14.95L18.23 14.81C17.67 14.29 16.93 14 16.15 14H16.14C15.33 14 14.57 14.31 14 14.87C13.41 15.45 13.08 16.21 13.08 17C13.08 17.8 13.39 18.54 13.96 19.09H13.96C14.54 19.66 15.35 20 16.18 20H16.2C17 20 17.71 19.71 18.23 19.2C18.7 18.72 19 18 19 17.33Z"/>
    </svg>

    <svg id="role" viewBox="0 0 24 24">
      <path
        d="M12,1L3,5V11C3,16.55 6.84,21.74 12,23C17.16,21.74 21,16.55 21,11V5L12,1M12,5A3,3 0 0,1 15,8A3,3 0 0,1 12,11A3,3 0 0,1 9,8A3,3 0 0,1 12,5M17.13,17C15.92,18.85 14.11,20.24 12,20.92C9.89,20.24 8.08,18.85 6.87,17C6.53,16.5 6.24,16 6,15.47C6,13.82 8.71,12.47 12,12.47C15.29,12.47 18,13.79 18,15.47C17.76,16 17.47,16.5 17.13,17Z"/>
    </svg>

    <svg id="jobstatus" viewBox="0 0 24 24">
      <path
        d="M12,2A10,10 0 0,1 22,12A10,10 0 0,1 12,22C7.4,22 3.55,18.92 2.36,14.73L6.19,16.31C6.45,17.6 7.6,18.58 8.97,18.58C10.53,18.58 11.8,17.31 11.8,15.75V15.62L15.2,13.19H15.28C17.36,13.19 19.05,11.5 19.05,9.42C19.05,7.34 17.36,5.65 15.28,5.65C13.2,5.65 11.5,7.34 11.5,9.42V9.47L9.13,12.93L8.97,12.92C8.38,12.92 7.83,13.1 7.38,13.41L2,11.2C2.43,6.05 6.73,2 12,2M8.28,17.17C9.08,17.5 10,17.13 10.33,16.33C10.66,15.53 10.28,14.62 9.5,14.29L8.22,13.76C8.71,13.58 9.26,13.57 9.78,13.79C10.31,14 10.72,14.41 10.93,14.94C11.15,15.46 11.15,16.04 10.93,16.56C10.5,17.64 9.23,18.16 8.15,17.71C7.65,17.5 7.27,17.12 7.06,16.67L8.28,17.17M17.8,9.42C17.8,10.81 16.67,11.94 15.28,11.94C13.9,11.94 12.77,10.81 12.77,9.42A2.5,2.5 0 0,1 15.28,6.91C16.67,6.91 17.8,8.04 17.8,9.42M13.4,9.42C13.4,10.46 14.24,11.31 15.29,11.31C16.33,11.31 17.17,10.46 17.17,9.42C17.17,8.38 16.33,7.53 15.29,7.53C14.24,7.53 13.4,8.38 13.4,9.42Z"/>
    </svg>

    <svg id="jobtype" viewBox="0 0 24 24">
      <path
        d="M20,8H4V6H20V8M18,2H6V4H18V2M22,12V20A2,2 0 0,1 20,22H4A2,2 0 0,1 2,20V12A2,2 0 0,1 4,10H20A2,2 0 0,1 22,12M16,16L10,12.73V19.26L16,16Z"/>
    </svg>

    <svg id="city" viewBox="0 0 64 64">
      <g id="Building">
        <path
          d="M58,53H56V32a1,1,0,0,0-1-1H43V18a1,1,0,0,0-.59-.912l-20-9A1,1,0,0,0,21,9V38H15a1,1,0,0,0-1,1V53H9V48.9a5,5,0,0,0,2.9-8.028A3.949,3.949,0,0,0,12,40a4,4,0,0,0-8,0,3.949,3.949,0,0,0,.1.871A5,5,0,0,0,7,48.9v.713l-1.684-.561a1,1,0,0,0-.632,1.9L7,51.721V53H2a1,1,0,0,0,0,2H58a1,1,0,0,0,0-2ZM5,44a3,3,0,0,1,.917-2.163,1,1,0,0,0,.231-1.087,2,2,0,1,1,3.7,0,1,1,0,0,0,.231,1.087A2.993,2.993,0,0,1,9,46.816V44a1,1,0,0,0-2,0v2.816A3,3,0,0,1,5,44Zm11-4h5V53H16Zm7-29.454,18,8.1V53H33V44a1,1,0,0,0-1-1H26a1,1,0,0,0-1,1v9H23ZM27,53V45h4v8Zm16,0V33H54V53Z"/>
        <path d="M62,53H61a1,1,0,0,0,0,2h1a1,1,0,0,0,0-2Z"/>
        <path d="M26,27H38a1,1,0,0,0,1-1V22a1,1,0,0,0-1-1H26a1,1,0,0,0-1,1v4A1,1,0,0,0,26,27Zm1-4H37v2H27Z"/>
        <path d="M26,34H38a1,1,0,0,0,1-1V29a1,1,0,0,0-1-1H26a1,1,0,0,0-1,1v4A1,1,0,0,0,26,34Zm1-4H37v2H27Z"/>
        <path d="M26,41H38a1,1,0,0,0,1-1V36a1,1,0,0,0-1-1H26a1,1,0,0,0-1,1v4A1,1,0,0,0,26,41Zm1-4H37v2H27Z"/>
        <path d="M52,34H45a1,1,0,0,0-1,1v4a1,1,0,0,0,1,1h7a1,1,0,0,0,1-1V35A1,1,0,0,0,52,34Zm-1,4H46V36h5Z"/>
        <path d="M52,41H45a1,1,0,0,0-1,1v4a1,1,0,0,0,1,1h7a1,1,0,0,0,1-1V42A1,1,0,0,0,52,41Zm-1,4H46V43h5Z"/>
      </g>
    </svg>

    <svg id="product" viewBox="0 0 24 24">
      <path d="M0 0h24v24H0z" fill="none"/>
      <path
        d="M12 2C6.48 2 2 6.48 2 12s4.48 10 10 10 10-4.48 10-10S17.52 2 12 2zm-1 17.93c-3.95-.49-7-3.85-7-7.93 0-.62.08-1.21.21-1.79L9 15v1c0 1.1.9 2 2 2v1.93zm6.9-2.54c-.26-.81-1-1.39-1.9-1.39h-1v-3c0-.55-.45-1-1-1H8v-2h2c.55 0 1-.45 1-1V7h2c1.1 0 2-.9 2-2v-.41c2.93 1.19 5 4.06 5 7.41 0 2.08-.8 3.97-2.1 5.39z"/>
    </svg>


    <svg id="locationtype" viewBox="0 0 24 24">
      <path d="M0 0h24v24H0z" fill="none"/>
      <path
        d="M11.99 18.54l-7.37-5.73L3 14.07l9 7 9-7-1.63-1.27-7.38 5.74zM12 16l7.36-5.73L21 9l-9-7-9 7 1.63 1.27L12 16z"/>
    </svg>

    <svg id="monthlylocationaverage" viewBox="0 0 24 24">
      <path d="M0 0h24v24H0z" fill="none"/>
      <path
        d="M13 2.05v3.03c3.39.49 6 3.39 6 6.92 0 .9-.18 1.75-.48 2.54l2.6 1.53c.56-1.24.88-2.62.88-4.07 0-5.18-3.95-9.45-9-9.95zM12 19c-3.87 0-7-3.13-7-7 0-3.53 2.61-6.43 6-6.92V2.05c-5.06.5-9 4.76-9 9.95 0 5.52 4.47 10 9.99 10 3.31 0 6.24-1.61 8.06-4.09l-2.6-1.53C16.17 17.98 14.21 19 12 19z"/>
    </svg>

    <svg id="monthlyimputedlocationaverage" viewBox="0 0 24 24">
      <path d="M0 0h24v24H0z" fill="none"/>
      <path
        d="M13 2.05v3.03c3.39.49 6 3.39 6 6.92 0 .9-.18 1.75-.48 2.54l2.6 1.53c.56-1.24.88-2.62.88-4.07 0-5.18-3.95-9.45-9-9.95zM12 19c-3.87 0-7-3.13-7-7 0-3.53 2.61-6.43 6-6.92V2.05c-5.06.5-9 4.76-9 9.95 0 5.52 4.47 10 9.99 10 3.31 0 6.24-1.61 8.06-4.09l-2.6-1.53C16.17 17.98 14.21 19 12 19z"/>
    </svg>

    <svg id="userdatasubscription" viewBox="0 0 24 24">
      <path d="M0 0h24v24H0z" fill="none"/>
      <path
        d="M13 2.05v3.03c3.39.49 6 3.39 6 6.92 0 .9-.18 1.75-.48 2.54l2.6 1.53c.56-1.24.88-2.62.88-4.07 0-5.18-3.95-9.45-9-9.95zM12 19c-3.87 0-7-3.13-7-7 0-3.53 2.61-6.43 6-6.92V2.05c-5.06.5-9 4.76-9 9.95 0 5.52 4.47 10 9.99 10 3.31 0 6.24-1.61 8.06-4.09l-2.6-1.53C16.17 17.98 14.21 19 12 19z"/>
    </svg>


    <svg id="state" viewBox="0 0 24 24">
      <path
        d="M11 9.16V2c-5 .5-9 4.79-9 10s4 9.5 9 10v-7.16c-1-.41-2-1.52-2-2.84s1-2.43 2-2.84zM14.86 11H22c-.48-4.75-4-8.53-9-9v7.16c1 .3 1.52.98 1.86 1.84zM13 14.84V22c5-.47 8.52-4.25 9-9h-7.14c-.34.86-.86 1.54-1.86 1.84z"/>
      <path fill="none" d="M0 0h24v24H0z"/>
    </svg>

    <svg id="selectproduct" viewBox="0 0 24 24">
      <path
        d="M11.99 2C6.47 2 2 6.48 2 12s4.47 10 9.99 10C17.52 22 22 17.52 22 12S17.52 2 11.99 2zM12 20c-4.42 0-8-3.58-8-8s3.58-8 8-8 8 3.58 8 8-3.58 8-8 8z"/>
      <path d="M0 0h24v24H0z" fill="none"/>
      <path d="M12.5 7H11v6l5.25 3.15.75-1.23-4.5-2.67z"/>
    </svg>

    <svg id="counttype" width="24" height="24" viewBox="0 0 24 24">
      <path d="M0 0h24v24H0z" fill="none"/>
      <path
        d="M17 5c.83 0 1.5-.67 1.5-1.5 0-1-1.5-2.7-1.5-2.7s-1.5 1.7-1.5 2.7c0 .83.67 1.5 1.5 1.5zm-5 0c.83 0 1.5-.67 1.5-1.5 0-1-1.5-2.7-1.5-2.7s-1.5 1.7-1.5 2.7c0 .83.67 1.5 1.5 1.5zM7 5c.83 0 1.5-.67 1.5-1.5C8.5 2.5 7 .8 7 .8S5.5 2.5 5.5 3.5C5.5 4.33 6.17 5 7 5zm11.92 3.01C18.72 7.42 18.16 7 17.5 7h-11c-.66 0-1.21.42-1.42 1.01L3 14v8c0 .55.45 1 1 1h1c.55 0 1-.45 1-1v-1h12v1c0 .55.45 1 1 1h1c.55 0 1-.45 1-1v-8l-2.08-5.99zM6.5 18c-.83 0-1.5-.67-1.5-1.5S5.67 15 6.5 15s1.5.67 1.5 1.5S7.33 18 6.5 18zm11 0c-.83 0-1.5-.67-1.5-1.5s.67-1.5 1.5-1.5 1.5.67 1.5 1.5-.67 1.5-1.5 1.5zM5 13l1.5-4.5h11L19 13H5z"/>
    </svg>

    <svg id="company" xmlns="http://www.w3.org/2000/svg" width="24" height="24" viewBox="0 0 24 24">
      <path fill="none" d="M0 0h24v24H0z"/>
      <path d="M8.17 5.7L1 10.48V21h5v-8h4v8h5V10.25z"/>
      <path fill="none" d="M17 7h2v2h-2z"/>
      <path d="M10 3v1.51l2 1.33L13.73 7H15v.85l2 1.34V11h2v2h-2v2h2v2h-2v4h6V3H10zm9 6h-2V7h2v2z"/>
    </svg>

    <svg id="userlog" xmlns="http://www.w3.org/2000/svg" width="24" height="24" viewBox="0 0 24 24">
      <path d="M11.99 2c-5.52 0-10 4.48-10 10s4.48 10 10 10 10-4.48 10-10-4.48-10-10-10zm3.61 6.34c1.07 0 1.93.86 1.93 1.93 0 1.07-.86 1.93-1.93 1.93-1.07 0-1.93-.86-1.93-1.93-.01-1.07.86-1.93 1.93-1.93zm-6-1.58c1.3 0 2.36 1.06 2.36 2.36 0 1.3-1.06 2.36-2.36 2.36s-2.36-1.06-2.36-2.36c0-1.31 1.05-2.36 2.36-2.36zm0 9.13v3.75c-2.4-.75-4.3-2.6-5.14-4.96 1.05-1.12 3.67-1.69 5.14-1.69.53 0 1.2.08 1.9.22-1.64.87-1.9 2.02-1.9 2.68zM11.99 20c-.27 0-.53-.01-.79-.04v-4.07c0-1.42 2.94-2.13 4.4-2.13 1.07 0 2.92.39 3.84 1.15-1.17 2.97-4.06 5.09-7.45 5.09z"/>
      <path fill="none" d="M0 0h24v24H0z"/>
    </svg>

    <svg id="basemetalprice" xmlns="http://www.w3.org/2000/svg" width="24" height="24" viewBox="0 0 24 24">
      <path d="M16 18l2.29-2.29-4.88-4.88-4 4L2 7.41 3.41 6l6 6 4-4 6.3 6.29L22 12v6z"/>
      <path d="M0 0h24v24H0z" fill="none"/>
    </svg>

    <svg id="basemetalvolume" xmlns="http://www.w3.org/2000/svg" width="24" height="24" viewBox="0 0 24 24">
      <path d="M16 6l2.29 2.29-4.88 4.88-4-4L2 16.59 3.41 18l6-6 4 4 6.3-6.29L22 12V6z"/>
      <path d="M0 0h24v24H0z" fill="none"/>
    </svg>

  </defs>
</svg>
